<?xml version="1.0" standalone="no"?>
<!DOCTYPE svg PUBLIC "-//W3C//DTD SVG 20010904//EN"
 "http://www.w3.org/TR/2001/REC-SVG-20010904/DTD/svg10.dtd">
<svg version="1.0" xmlns="http://www.w3.org/2000/svg"
 width="6772.000000pt" height="3734.000000pt" viewBox="0 0 6772.000000 3734.000000"
 preserveAspectRatio="xMidYMid meet">

<g transform="translate(0.000000,3734.000000) scale(0.100000,-0.100000)"
fill="#000000" stroke="none">
<path d="M47253 32193 c-29 -2 -53 -8 -53 -14 0 -5 -7 -9 -15 -9 -9 0 -23 -17
-32 -37 -10 -21 -38 -69 -64 -108 -35 -54 -52 -92 -69 -165 -13 -52 -34 -115
-46 -140 -11 -25 -27 -63 -34 -85 -18 -58 -47 -112 -92 -173 -21 -29 -49 -79
-61 -112 -26 -73 -66 -124 -118 -151 -22 -11 -43 -28 -46 -37 -4 -9 -17 -27
-28 -40 -12 -13 -33 -42 -46 -64 -13 -22 -38 -57 -56 -77 -28 -33 -93 -172
-93 -199 0 -5 -51 -56 -114 -114 -81 -73 -137 -115 -189 -141 -59 -29 -90 -54
-140 -111 -50 -55 -82 -81 -134 -106 -49 -24 -89 -54 -143 -110 -80 -83 -109
-102 -186 -121 -56 -14 -101 -38 -159 -84 -54 -43 -109 -70 -175 -85 -85 -20
-118 -37 -175 -90 -61 -59 -118 -86 -211 -101 -38 -6 -95 -15 -127 -20 -33 -5
-84 -5 -120 0 -70 9 -156 1 -236 -23 -30 -9 -71 -16 -92 -16 -20 0 -65 -9
-100 -19 -35 -11 -107 -23 -159 -26 -79 -5 -107 -12 -165 -40 -38 -18 -89 -38
-112 -44 -24 -6 -62 -16 -85 -23 -25 -6 -132 -12 -259 -13 -119 -1 -222 -5
-229 -10 -7 -5 -55 -12 -106 -16 -51 -4 -103 -13 -116 -20 -15 -8 -56 -10
-135 -6 -91 5 -129 3 -200 -13 -49 -11 -99 -20 -113 -20 -14 0 -63 -19 -110
-42 -80 -40 -90 -43 -160 -41 -41 1 -115 -3 -165 -8 -49 -6 -127 -12 -173 -14
-45 -1 -89 -8 -96 -14 -8 -7 -18 -11 -22 -9 -5 1 -40 -4 -77 -11 -37 -7 -85
-11 -107 -7 -25 4 -71 -1 -125 -14 -47 -11 -116 -20 -153 -20 -37 -1 -85 -8
-107 -16 -79 -31 -180 -54 -231 -54 -29 0 -79 -8 -113 -19 -42 -13 -95 -19
-171 -20 -61 -1 -123 -6 -136 -11 -14 -6 -70 -10 -126 -10 -58 0 -141 -8 -196
-19 -106 -21 -258 -33 -367 -30 -120 4 -133 3 -208 -19 -146 -42 -202 -57
-210 -54 -4 1 -26 -8 -50 -20 -36 -19 -60 -23 -173 -25 -72 -1 -151 -7 -175
-12 -24 -6 -73 -11 -109 -11 -36 0 -81 -5 -100 -11 -19 -6 -107 -13 -195 -14
-286 -6 -381 -15 -475 -47 -47 -16 -114 -33 -150 -38 -36 -5 -87 -16 -115 -26
-35 -12 -89 -18 -177 -19 -70 -2 -131 -6 -136 -9 -6 -3 -68 -8 -139 -10 -70
-3 -162 -10 -204 -16 -42 -6 -94 -10 -115 -10 -115 3 -433 -8 -443 -15 -7 -4
-65 -18 -129 -32 -65 -13 -137 -29 -162 -35 -25 -6 -56 -11 -70 -11 -48 0
-375 25 -381 29 -4 2 -62 8 -130 14 -68 6 -137 15 -154 20 -16 5 -52 12 -79
15 -27 4 -58 11 -68 16 -10 6 -40 13 -65 16 -26 3 -63 13 -82 21 -20 9 -54 21
-76 28 -67 20 -169 61 -259 104 -47 22 -89 40 -93 40 -4 0 -25 8 -47 18 -110
50 -168 72 -241 93 -75 21 -151 52 -290 120 -45 22 -78 49 -130 109 -38 44
-75 81 -81 82 -6 2 -49 37 -94 78 -45 41 -103 86 -129 100 -25 14 -48 27 -51
30 -3 3 -17 13 -31 22 -25 16 -109 131 -109 149 0 8 -38 54 -154 183 -33 37
-65 75 -70 84 -21 36 -151 132 -179 132 -8 0 -20 6 -27 14 -24 30 -184 2 -238
-41 -20 -17 -51 -37 -69 -46 -43 -22 -60 -49 -85 -132 -17 -54 -31 -79 -68
-116 -26 -25 -54 -62 -63 -80 -9 -19 -51 -73 -95 -121 -50 -55 -85 -104 -97
-135 -10 -26 -26 -60 -35 -75 -21 -36 -232 -233 -292 -274 -25 -17 -74 -70
-109 -117 -55 -74 -72 -90 -120 -112 -31 -14 -63 -25 -71 -25 -21 0 -89 -48
-152 -105 -37 -34 -82 -56 -159 -76 -77 -20 -97 -31 -162 -84 -72 -58 -113
-76 -230 -101 -16 -4 -69 -32 -117 -64 -47 -32 -97 -61 -110 -65 -13 -4 -27
-11 -33 -15 -5 -5 -36 -13 -67 -19 -32 -6 -93 -27 -135 -47 -43 -20 -118 -45
-168 -55 -49 -10 -106 -23 -124 -29 -23 -6 -65 -7 -120 -1 -88 9 -304 7 -376
-4 -46 -7 -121 -33 -150 -52 -51 -32 -476 -44 -660 -18 -118 16 -278 26 -390
25 -76 0 -464 0 -550 1 -150 2 -280 -6 -340 -19 -38 -8 -115 -16 -170 -18 -55
-2 -116 -4 -135 -5 -19 -1 -125 3 -235 9 -110 7 -274 14 -365 17 -91 3 -230 7
-310 10 -424 14 -739 16 -820 4 -47 -6 -121 -11 -165 -11 -44 1 -96 -3 -115
-8 -21 -5 -127 -5 -260 1 -181 7 -513 10 -650 6 -33 -1 -262 12 -320 18 -25 3
-103 7 -175 11 -71 3 -132 7 -135 9 -3 2 -44 6 -90 10 -47 3 -140 10 -208 16
-67 5 -127 7 -132 4 -6 -3 -80 -8 -166 -10 -86 -3 -160 -7 -165 -11 -11 -6
-328 -5 -374 2 -79 12 -194 17 -765 38 -58 2 -157 9 -220 15 -63 7 -133 13
-155 15 -22 1 -46 6 -53 10 -7 4 -33 9 -59 11 -115 10 -417 86 -520 131 -17 8
-37 14 -45 14 -7 0 -22 6 -33 14 -11 7 -38 19 -60 26 -22 7 -96 40 -165 72
-69 33 -141 62 -160 65 -19 3 -78 27 -130 53 -52 27 -115 55 -140 64 -25 9
-69 35 -98 59 -29 24 -74 55 -100 69 -26 13 -80 46 -121 74 -40 27 -102 68
-138 91 -36 23 -74 50 -85 60 -17 15 -75 96 -128 179 -8 13 -19 24 -24 24 -5
0 -19 10 -31 23 -22 22 -144 133 -238 218 -27 24 -59 64 -72 89 -13 25 -52 84
-88 132 -61 82 -107 175 -107 217 0 25 -39 121 -60 146 -9 11 -34 47 -56 79
-127 191 -263 234 -411 129 -29 -21 -80 -54 -113 -73 -62 -37 -78 -55 -158
-185 -38 -62 -54 -101 -68 -164 -15 -70 -29 -101 -85 -190 -94 -148 -92 -146
-156 -182 -84 -47 -130 -85 -137 -114 -7 -27 -18 -43 -77 -109 -20 -23 -65
-77 -101 -121 -57 -72 -72 -84 -153 -125 -52 -26 -111 -66 -140 -93 -61 -59
-98 -79 -197 -106 -80 -21 -142 -58 -193 -111 -38 -40 -75 -59 -145 -76 -31
-7 -89 -29 -130 -48 -41 -20 -84 -36 -97 -36 -12 0 -24 -4 -27 -8 -7 -12 -218
-26 -346 -23 -110 2 -130 -1 -385 -69 -108 -29 -133 -32 -250 -31 -154 2 -486
30 -499 42 -6 5 -26 9 -46 9 -20 0 -61 4 -91 10 -30 5 -151 15 -269 20 -118 6
-252 13 -298 15 -103 5 -342 33 -402 46 -206 46 -694 78 -789 51 -27 -8 -123
-13 -260 -14 -214 -2 -265 0 -451 21 -52 5 -174 15 -270 21 -96 6 -215 17
-265 26 -136 22 -245 41 -295 52 -99 22 -192 33 -330 37 -80 3 -185 9 -235 15
-214 23 -372 30 -720 33 -234 2 -380 8 -396 14 -14 6 -77 16 -140 22 -164 16
-335 40 -399 57 -54 13 -245 38 -426 53 -50 5 -106 13 -125 19 -19 6 -92 16
-164 22 -71 6 -145 18 -162 26 -18 7 -39 11 -48 8 -17 -7 -141 13 -167 27 -10
5 -25 9 -35 9 -17 0 -53 10 -133 37 -25 8 -73 21 -106 28 -34 8 -81 22 -105
33 -24 11 -66 28 -94 38 -27 10 -61 26 -74 36 -13 10 -31 18 -40 18 -9 0 -41
16 -71 35 -30 19 -58 35 -62 35 -8 0 -127 54 -242 111 -32 16 -67 29 -78 29
-10 0 -26 4 -36 9 -37 19 -149 70 -282 127 -19 9 -57 27 -85 41 -27 15 -75 32
-105 39 -60 14 -188 57 -287 97 -80 33 -112 37 -268 38 -141 2 -169 -5 -252
-62 -23 -16 -46 -29 -51 -29 -5 0 -20 -11 -33 -24 -13 -12 -55 -35 -93 -51
-86 -34 -94 -38 -178 -100 -37 -28 -90 -59 -117 -69 -27 -10 -55 -24 -62 -32
-6 -8 -19 -14 -28 -14 -9 0 -36 -14 -61 -30 -25 -16 -57 -30 -71 -30 -15 0
-32 -7 -39 -15 -7 -8 -17 -15 -23 -15 -6 0 -18 -6 -26 -14 -19 -17 -287 -156
-301 -156 -6 0 -23 -11 -38 -24 -36 -33 -202 -117 -277 -142 -33 -10 -62 -21
-65 -24 -31 -31 -187 -123 -230 -135 -56 -16 -94 -31 -120 -46 -8 -5 -21 -12
-28 -15 -7 -4 -32 -24 -55 -46 -51 -48 -96 -78 -119 -78 -58 0 -219 -72 -241
-107 -17 -28 -93 -66 -177 -87 -97 -26 -112 -34 -158 -87 -43 -50 -97 -74
-260 -118 -30 -8 -65 -32 -112 -76 -66 -60 -73 -64 -142 -75 -88 -15 -137 -42
-203 -110 -56 -57 -95 -80 -176 -103 -46 -14 -68 -29 -140 -100 -74 -73 -92
-85 -153 -105 -96 -32 -103 -36 -143 -100 -19 -31 -56 -87 -80 -124 -36 -52
-50 -85 -66 -160 -27 -118 -28 -307 -3 -356 9 -18 34 -139 56 -269 54 -332 54
-332 93 -414 18 -41 39 -103 46 -139 7 -36 23 -101 36 -145 12 -44 33 -116 46
-160 12 -44 36 -107 52 -140 26 -52 31 -76 38 -180 9 -145 32 -229 106 -384
31 -65 65 -158 79 -215 16 -60 39 -123 59 -156 40 -66 62 -130 71 -201 11 -95
84 -354 109 -389 26 -38 44 -81 64 -155 26 -97 56 -170 86 -210 31 -42 43 -86
50 -185 6 -84 50 -286 67 -305 4 -5 8 -15 8 -23 0 -8 18 -50 40 -94 22 -43 49
-113 59 -156 23 -93 43 -142 83 -199 36 -53 68 -144 68 -192 0 -67 78 -332
115 -391 14 -22 25 -44 25 -49 0 -4 9 -28 19 -52 11 -25 25 -66 31 -93 13 -60
43 -128 82 -184 24 -35 33 -66 49 -162 19 -120 42 -192 103 -330 79 -177 96
-217 96 -233 0 -31 53 -162 83 -206 31 -46 36 -62 64 -216 12 -66 29 -115 64
-186 27 -54 49 -101 49 -105 0 -20 56 -157 105 -259 102 -211 124 -263 138
-331 20 -94 28 -111 85 -185 58 -76 77 -111 86 -159 9 -48 46 -141 66 -165 59
-73 78 -120 100 -259 6 -40 19 -71 38 -95 36 -46 102 -155 102 -170 0 -6 9
-30 19 -53 11 -24 25 -58 32 -76 6 -18 26 -57 44 -86 18 -30 36 -67 39 -82 4
-16 16 -46 26 -69 9 -22 34 -83 54 -135 50 -130 97 -224 148 -293 24 -31 54
-83 67 -115 36 -85 79 -173 101 -207 49 -75 80 -160 80 -220 0 -33 55 -149 89
-189 15 -17 41 -62 57 -101 45 -109 68 -146 131 -205 53 -50 61 -64 92 -155
33 -97 53 -139 75 -160 43 -40 82 -112 112 -205 20 -67 40 -97 115 -176 40
-42 61 -74 69 -105 25 -93 61 -171 109 -229 28 -36 58 -87 70 -123 12 -34 26
-70 31 -79 6 -10 10 -24 10 -31 0 -7 31 -43 69 -79 66 -63 121 -147 121 -184
0 -25 61 -133 114 -201 25 -32 54 -83 65 -113 38 -108 51 -129 122 -192 57
-50 78 -77 105 -135 35 -76 100 -179 159 -251 20 -26 43 -71 55 -113 18 -58
33 -83 96 -157 42 -48 87 -107 102 -130 15 -24 39 -58 53 -75 38 -46 156 -224
174 -261 8 -17 29 -47 46 -66 35 -40 79 -121 79 -146 0 -19 23 -52 120 -169
37 -44 83 -115 104 -157 21 -43 41 -80 46 -83 13 -8 124 -156 142 -190 9 -16
27 -52 40 -79 13 -28 47 -72 78 -100 97 -91 116 -113 143 -171 15 -31 36 -66
47 -77 11 -12 20 -26 20 -31 0 -4 13 -19 28 -32 45 -38 108 -126 122 -170 28
-86 187 -280 301 -366 19 -15 59 -66 89 -115 33 -54 84 -118 131 -164 46 -45
88 -97 104 -130 34 -67 73 -120 89 -120 7 0 22 -10 33 -23 11 -12 58 -53 103
-92 165 -139 179 -155 223 -243 34 -70 52 -94 100 -131 55 -44 98 -103 141
-194 9 -21 45 -64 79 -95 34 -31 82 -78 108 -104 26 -27 52 -48 58 -48 6 0 11
-4 11 -10 0 -5 14 -23 30 -40 17 -17 30 -35 30 -40 0 -5 10 -10 22 -12 22 -3
58 -55 51 -74 -2 -6 2 -18 10 -26 8 -8 17 -24 21 -36 4 -12 22 -31 39 -43 76
-53 170 -169 181 -224 3 -20 18 -35 27 -30 5 4 13 -4 18 -17 11 -28 38 -53 68
-62 12 -4 41 -26 65 -49 25 -23 57 -48 72 -55 15 -7 30 -21 33 -32 3 -11 10
-20 17 -20 6 0 27 -20 46 -45 19 -24 40 -44 46 -45 6 0 24 -25 40 -56 16 -31
38 -60 49 -64 11 -4 28 -17 39 -28 10 -12 37 -31 59 -42 44 -23 84 -63 122
-122 43 -65 249 -265 308 -298 30 -17 68 -48 83 -68 16 -20 36 -43 46 -50 10
-7 18 -19 18 -27 0 -8 9 -19 21 -25 11 -7 25 -25 31 -41 7 -20 24 -37 52 -51
48 -25 65 -44 66 -76 0 -12 8 -26 17 -29 10 -4 42 -28 71 -55 30 -26 58 -48
64 -48 16 0 131 -118 124 -128 -7 -12 55 -68 71 -64 7 1 18 -6 25 -18 7 -11
17 -20 23 -20 5 0 30 -22 55 -49 26 -29 80 -69 130 -97 95 -53 132 -83 162
-131 11 -18 24 -33 30 -33 6 0 31 -21 57 -47 26 -27 58 -57 71 -69 14 -11 36
-40 50 -62 13 -23 28 -42 32 -42 17 0 131 -96 144 -122 8 -16 21 -28 28 -28 7
0 35 -26 62 -57 56 -67 90 -102 121 -123 12 -8 48 -35 80 -60 32 -25 92 -65
133 -90 64 -37 115 -82 264 -230 8 -8 39 -41 68 -73 29 -32 76 -70 103 -84 28
-14 83 -60 124 -102 41 -42 70 -69 66 -61 -11 17 127 -86 176 -133 20 -19 69
-54 110 -77 114 -64 146 -84 167 -103 10 -9 23 -17 28 -17 31 -1 171 -120 214
-183 13 -18 48 -51 79 -72 31 -22 76 -58 101 -80 62 -55 119 -99 155 -117 17
-9 46 -33 66 -54 57 -62 115 -111 138 -119 11 -3 21 -10 21 -14 0 -5 15 -14
33 -22 17 -7 48 -26 66 -42 19 -17 60 -41 90 -54 31 -13 101 -46 156 -72 164
-79 233 -111 241 -111 4 0 37 -20 73 -44 36 -24 90 -55 118 -70 29 -14 60 -37
69 -51 9 -14 24 -25 33 -25 9 0 21 -10 26 -22 6 -13 19 -23 30 -23 11 0 19 -6
17 -13 -1 -8 2 -11 8 -7 10 6 92 -33 98 -48 2 -4 8 -4 14 -1 5 3 8 -2 6 -12
-2 -12 3 -19 14 -19 9 0 24 -9 33 -20 9 -11 14 -14 10 -7 -4 7 0 12 9 12 9 0
16 -4 16 -10 0 -9 58 -47 139 -90 15 -8 45 -29 67 -46 44 -34 155 -104 167
-104 4 0 40 -24 80 -54 41 -30 102 -68 138 -85 68 -33 76 -38 154 -87 28 -18
67 -37 88 -44 21 -7 41 -18 44 -26 3 -8 9 -11 14 -8 5 3 9 0 9 -6 0 -6 6 -10
13 -8 14 3 101 -46 131 -74 11 -10 27 -18 35 -18 9 0 27 -7 41 -15 14 -8 37
-19 53 -26 15 -6 27 -15 27 -20 0 -5 9 -18 20 -29 11 -11 20 -18 20 -15 0 10
116 -53 134 -74 11 -12 27 -21 38 -21 10 0 28 -12 41 -26 27 -32 91 -74 112
-74 9 0 13 -5 10 -10 -3 -6 -1 -10 4 -10 6 0 10 -6 9 -13 -2 -7 8 -12 26 -12
15 -1 34 -9 41 -18 7 -9 17 -17 24 -17 6 0 16 -9 23 -20 7 -11 20 -20 28 -20
9 0 40 -16 70 -36 30 -19 67 -38 83 -41 15 -3 27 -9 27 -13 0 -4 17 -16 38
-26 20 -11 39 -23 42 -29 3 -5 14 -11 24 -13 11 -1 28 -10 38 -19 10 -9 36
-17 59 -19 22 -1 50 -10 62 -18 58 -43 127 -86 138 -86 6 0 28 -9 48 -20 20
-10 68 -33 106 -51 39 -17 73 -36 77 -42 4 -6 25 -11 47 -11 23 0 41 -3 41 -8
0 -5 11 -13 25 -18 53 -20 140 -64 143 -72 2 -4 10 -8 18 -8 8 0 14 -4 14 -9
0 -5 8 -7 18 -4 10 2 34 -7 54 -21 46 -31 208 -113 308 -156 41 -18 89 -39
107 -46 17 -8 37 -14 45 -14 8 0 18 -3 22 -7 15 -15 196 -72 326 -103 40 -10
142 -50 215 -84 28 -13 61 -27 75 -30 14 -3 35 -14 47 -26 12 -11 34 -20 49
-20 14 0 37 -9 51 -20 14 -11 32 -20 39 -20 8 0 14 -4 14 -10 0 -5 6 -10 13
-10 7 0 30 -9 52 -20 22 -11 45 -20 53 -20 7 0 24 -11 38 -25 14 -14 36 -25
50 -25 13 0 27 -7 30 -15 4 -8 17 -15 29 -15 13 0 31 -8 41 -17 9 -9 26 -19
38 -20 11 -2 30 -10 43 -18 12 -8 29 -15 37 -15 8 0 21 -6 28 -12 7 -7 34 -22
58 -34 25 -12 72 -34 104 -50 33 -15 68 -30 78 -31 11 -2 43 -14 71 -27 29
-14 81 -34 117 -46 61 -20 215 -82 252 -101 10 -5 25 -9 33 -9 8 0 23 -4 33
-9 23 -13 139 -54 242 -86 47 -14 99 -31 115 -37 17 -6 44 -13 60 -16 17 -2
41 -13 54 -23 13 -11 31 -19 39 -19 16 0 390 -123 427 -140 11 -5 47 -17 80
-26 33 -9 66 -21 73 -27 7 -6 32 -14 55 -18 71 -12 181 -47 185 -58 2 -6 12
-11 22 -11 19 0 95 -23 135 -40 11 -4 58 -18 105 -29 47 -11 128 -32 180 -46
52 -15 120 -32 150 -39 88 -20 230 -57 290 -74 30 -9 58 -15 61 -14 4 0 38 -8
75 -19 38 -11 92 -24 119 -29 28 -4 111 -22 185 -38 74 -17 162 -36 195 -42
33 -7 74 -18 90 -25 17 -7 55 -16 85 -20 30 -3 84 -15 120 -25 36 -11 110 -29
165 -41 55 -11 123 -27 150 -34 28 -8 97 -23 155 -35 58 -11 114 -23 125 -25
11 -3 76 -16 145 -30 69 -14 157 -33 195 -41 39 -8 97 -19 130 -25 33 -6 80
-15 105 -20 25 -4 79 -15 120 -23 41 -8 110 -21 154 -30 43 -8 82 -13 87 -11
4 3 10 1 14 -5 3 -5 32 -10 64 -10 32 0 61 -3 64 -7 7 -6 27 -8 239 -17 58 -2
115 -9 125 -15 13 -7 43 -7 92 0 59 8 79 7 105 -4 19 -9 68 -15 126 -16 105
-2 177 -9 200 -21 9 -5 68 -11 132 -13 64 -3 121 -8 127 -11 6 -4 36 -9 68
-11 32 -3 94 -9 138 -14 44 -6 102 -12 128 -15 26 -3 56 -10 67 -16 10 -5 36
-10 57 -10 44 0 258 -33 353 -55 71 -16 186 -31 210 -27 8 1 40 -2 70 -7 30
-6 104 -13 165 -16 60 -4 112 -8 116 -11 4 -2 65 -7 136 -10 70 -3 146 -7 168
-10 46 -6 97 -11 175 -18 30 -3 98 -11 150 -19 107 -17 197 -25 385 -36 154
-9 210 -7 290 9 59 11 71 13 110 11 11 -1 84 1 161 4 78 3 155 1 170 -4 25 -8
185 -18 424 -25 138 -5 347 -17 395 -23 47 -6 184 -13 249 -13 15 0 35 -5 42
-11 8 -6 51 -13 96 -15 46 -2 144 -9 218 -14 174 -13 365 -6 427 16 75 25 146
42 158 38 6 -3 28 3 49 11 29 12 65 16 140 14 101 -3 159 -3 481 -1 94 0 195
0 225 0 30 -1 150 0 265 0 116 1 226 -3 245 -8 69 -20 192 -4 350 45 144 45
207 56 270 46 61 -10 386 -5 404 6 5 3 63 8 130 9 67 2 141 8 165 13 24 5 98
9 165 10 208 2 444 46 497 92 12 11 34 19 48 20 129 3 357 1 401 -4 30 -3 75
-1 100 4 114 23 149 28 210 33 36 2 78 9 94 15 16 6 80 11 145 11 67 -1 146 5
186 13 39 8 97 18 129 22 33 4 66 10 75 15 9 4 39 19 66 33 46 23 65 26 220
33 94 3 204 7 245 8 41 1 85 8 98 15 14 7 88 16 180 22 86 5 182 13 212 18 30
5 85 10 122 10 43 1 94 10 140 25 40 13 109 30 153 37 44 6 85 16 92 21 46 36
90 48 178 48 49 0 122 6 160 14 39 8 113 18 165 21 52 4 98 9 101 11 4 2 24 6
45 10 22 3 47 10 56 15 9 5 36 9 60 9 24 0 101 9 172 20 71 11 145 20 165 20
21 0 46 7 57 15 10 8 26 15 35 15 8 0 33 13 55 29 44 32 110 51 181 51 55 1
110 12 170 34 24 9 75 21 115 27 40 6 82 16 93 22 11 6 27 12 35 13 8 1 35 9
59 18 27 10 76 16 130 17 47 0 120 5 161 10 41 6 106 12 143 14 44 2 75 9 86
19 10 9 21 16 25 16 4 0 22 10 39 23 34 23 118 45 180 46 21 1 63 10 95 20
100 33 138 41 208 42 38 1 83 7 99 14 35 15 68 22 180 34 93 11 123 21 149 50
11 11 23 21 27 21 5 0 25 12 46 26 56 38 118 64 182 76 31 6 76 21 101 33 51
24 100 39 180 53 30 6 74 17 96 26 32 11 69 14 163 10 l121 -4 102 45 c56 24
104 48 107 52 3 5 33 25 66 44 67 41 99 49 261 63 34 3 77 14 95 24 19 10 51
24 72 31 20 7 35 16 32 20 -5 9 62 31 96 31 29 0 147 33 180 50 29 16 84 31
124 35 36 3 61 12 97 37 14 10 31 18 38 18 6 0 23 9 36 19 14 11 44 22 67 26
81 12 200 50 220 70 21 19 122 56 152 54 83 -4 210 33 301 90 28 17 54 31 58
31 4 0 31 16 61 35 84 53 123 67 205 71 41 2 82 4 90 5 25 1 72 21 121 51 26
16 82 37 125 48 112 29 151 46 200 89 56 50 162 101 207 101 20 0 39 4 42 10
3 5 19 10 34 10 15 0 31 4 37 10 9 9 109 32 143 33 15 0 176 81 198 98 7 6 50
18 95 25 70 13 94 22 152 62 126 86 151 99 207 106 60 8 146 43 176 73 38 38
172 102 214 103 25 0 101 40 145 75 59 48 119 79 204 105 67 21 91 31 156 69
33 19 78 34 97 32 9 -1 29 7 43 18 15 12 33 21 40 21 7 0 19 6 26 14 14 14 62
37 191 91 42 19 99 51 125 73 26 21 57 45 70 51 37 20 135 50 160 51 23 0 133
46 142 59 19 27 89 63 167 86 88 26 95 31 174 106 79 76 119 99 175 99 48 0
118 31 180 80 60 48 164 100 196 100 31 0 99 50 146 106 58 70 100 99 157 109
54 10 136 48 160 75 39 43 112 89 159 100 79 18 133 49 201 119 60 62 152 121
187 121 9 0 21 7 28 15 7 8 16 15 20 15 4 0 31 21 58 48 78 72 107 91 171 113
41 14 81 39 128 79 37 33 109 88 158 123 50 36 103 77 118 91 15 14 32 26 37
26 5 0 13 6 17 14 4 7 41 30 80 49 40 20 105 63 144 97 44 38 106 78 163 105
75 36 104 57 163 118 63 67 80 78 155 107 66 25 96 44 148 92 78 73 124 103
170 113 58 12 106 42 146 91 69 82 93 102 166 139 40 20 98 58 128 85 30 28
87 69 125 91 119 71 168 105 218 153 27 25 62 53 78 63 16 10 61 54 100 99 58
68 84 89 149 123 43 23 90 54 103 69 14 15 43 47 65 72 22 25 58 53 79 63 127
61 149 77 256 184 63 62 120 125 128 140 34 67 131 143 181 143 16 0 88 68
139 131 25 30 60 57 110 82 89 44 103 56 156 127 23 30 64 77 92 104 28 26 61
65 73 85 30 50 93 109 137 127 37 15 53 31 144 142 29 35 76 78 107 97 30 18
66 46 80 60 14 15 50 44 80 65 93 65 139 112 194 200 31 51 66 94 87 107 45
29 96 79 126 124 13 20 53 60 89 89 36 29 78 71 94 94 46 67 101 113 162 136
64 24 102 58 161 145 22 33 48 64 56 69 33 20 90 83 111 123 23 46 91 113 138
137 17 9 52 50 84 98 31 46 81 106 112 134 31 29 56 59 56 67 0 9 6 20 13 24
7 4 21 25 32 45 11 22 32 42 50 49 60 25 112 69 170 145 65 87 109 134 125
134 9 0 41 43 87 119 12 20 47 59 77 86 30 28 69 77 86 110 18 33 53 88 79
124 25 35 66 102 91 149 40 76 50 88 96 111 62 32 100 62 130 102 13 17 45 54
72 83 46 49 112 138 112 151 0 23 45 97 71 117 61 46 95 85 134 152 15 28 45
68 65 90 40 43 69 96 90 160 7 22 33 65 59 97 25 31 55 75 65 96 22 42 104
133 121 133 14 0 85 72 85 86 0 16 59 105 96 144 18 19 56 78 85 130 28 52 66
112 85 132 18 20 49 71 69 113 19 41 52 94 73 118 45 51 71 88 102 147 13 25
39 61 56 80 28 30 54 79 107 200 6 14 30 53 54 87 24 34 43 66 43 72 0 6 4 11
8 11 4 0 14 16 21 36 7 20 41 66 75 102 43 47 72 90 95 142 18 41 50 93 71
115 21 22 59 81 85 130 25 50 63 113 84 140 20 28 45 68 55 90 10 22 25 54 32
70 8 17 30 46 49 67 19 20 54 74 77 120 24 46 59 109 79 139 19 30 44 83 53
119 10 36 31 81 46 101 16 20 45 76 64 124 20 49 54 119 77 156 22 37 49 91
60 120 29 76 48 110 79 144 15 17 45 63 65 103 21 40 57 91 80 113 43 41 80
102 89 150 3 14 25 55 49 90 45 66 89 146 102 187 3 13 22 51 42 85 19 34 46
98 61 142 14 44 40 103 58 130 18 28 43 79 55 115 12 36 36 85 53 110 36 51
59 100 51 108 -3 3 1 15 8 26 8 12 20 39 27 61 7 22 23 54 36 70 35 47 84 145
84 170 0 12 13 40 29 62 38 52 71 117 71 140 1 24 34 118 47 135 19 23 60 111
83 178 12 36 33 88 46 116 14 28 32 82 42 120 10 38 25 83 33 99 9 17 32 73
52 125 20 52 52 118 70 146 19 28 37 64 41 80 4 16 11 31 16 34 4 3 10 21 12
40 3 19 16 51 29 71 25 36 41 68 122 239 50 107 72 168 81 222 4 20 21 63 38
95 17 32 35 72 39 88 13 51 39 118 70 179 16 32 36 82 43 110 8 29 30 86 49
127 20 41 38 88 42 104 4 17 10 39 15 50 26 66 41 106 55 155 10 30 23 64 30
75 6 11 15 37 19 58 4 22 23 75 42 119 20 44 38 92 40 107 7 37 31 107 51 144
8 17 26 72 39 122 12 49 34 115 48 145 14 30 26 63 26 73 0 28 41 159 58 185
8 12 25 67 38 122 13 55 33 118 44 140 11 22 23 61 26 87 7 58 29 132 57 193
12 25 22 52 23 60 8 69 26 143 44 183 12 26 25 73 30 105 6 31 21 91 36 132
14 41 34 113 44 158 10 46 23 89 29 95 6 6 11 25 11 42 0 17 5 36 12 43 6 6
14 30 19 54 16 91 38 174 53 203 9 17 16 41 16 55 0 30 30 144 58 220 11 30
25 80 32 110 6 30 21 86 32 125 11 38 22 79 23 90 7 52 38 182 48 200 6 11 16
47 22 80 7 33 27 119 44 190 65 263 74 302 92 395 10 52 27 124 39 160 11 36
23 93 26 128 3 35 12 79 20 98 8 18 23 101 34 184 10 83 22 155 25 160 9 14
35 197 43 295 14 185 6 445 -18 555 -6 25 -12 72 -14 105 -3 33 -7 76 -10 95
-3 19 -8 64 -11 100 -11 135 -18 167 -45 225 -15 33 -37 81 -49 106 -12 25
-30 81 -42 124 -20 79 -43 131 -66 150 -19 16 -105 148 -108 166 -9 44 -89
139 -116 139 -17 0 -121 91 -159 138 -20 26 -56 63 -80 82 -57 47 -107 96
-155 154 -22 26 -60 58 -85 71 -25 12 -70 48 -100 80 -30 31 -66 66 -79 78
-14 12 -66 58 -115 103 -50 44 -143 115 -206 156 -63 42 -137 97 -165 122 -27
25 -53 46 -58 46 -11 0 -76 53 -137 110 -56 53 -63 59 -115 85 -21 11 -58 36
-81 55 -24 19 -78 53 -121 75 -43 22 -84 45 -91 52 -31 30 -132 102 -183 131
-31 18 -67 42 -80 55 -62 60 -130 105 -224 151 -16 8 -48 27 -70 43 -22 15
-78 46 -125 68 -47 22 -87 42 -90 45 -14 15 -126 82 -175 105 -29 13 -69 46
-76 62 -7 15 -75 61 -150 101 -41 22 -111 60 -157 85 -46 25 -100 51 -119 58
-20 6 -51 22 -69 34 -18 12 -81 43 -140 69 -58 26 -123 60 -143 76 -20 15 -70
43 -111 62 -41 18 -102 49 -135 70 -33 21 -88 51 -123 68 -35 16 -78 41 -96
55 -18 13 -71 40 -119 59 -47 19 -108 46 -134 59 -26 13 -100 46 -163 72 -63
26 -126 53 -140 60 -14 7 -61 28 -105 45 -44 17 -114 47 -155 67 -41 19 -88
41 -105 48 -154 68 -221 99 -229 106 -6 5 -17 9 -27 9 -9 0 -57 20 -107 45
-50 25 -93 45 -96 45 -3 0 -49 20 -103 45 -54 25 -111 52 -128 60 -16 7 -65
30 -107 49 -42 20 -94 42 -115 50 -21 8 -99 40 -173 71 -74 32 -155 63 -180
70 -43 13 -69 23 -170 67 -139 60 -320 122 -465 160 -27 7 -52 13 -55 13 -24
3 -148 40 -157 48 -7 5 -41 10 -77 12 -35 1 -70 6 -77 11 -13 8 -59 12 -194
17 -86 4 -193 13 -264 23 -28 4 -46 3 -51 -5 -4 -7 -17 -13 -28 -14 -12 -1
-22 -4 -22 -8 0 -7 -39 -22 -52 -20 -4 0 -20 -4 -35 -11 -15 -6 -34 -12 -41
-14 -8 -1 -21 -6 -30 -10 -9 -4 -35 -7 -57 -6 -22 0 -45 -3 -50 -8 -6 -5 -56
-9 -110 -8 -167 0 -190 -1 -193 -12 -2 -5 -10 -10 -18 -10 -8 0 -14 -4 -14
-10 0 -5 -11 -10 -24 -10 -14 0 -28 -4 -31 -10 -3 -5 -22 -10 -41 -10 -45 0
-124 -20 -124 -31 0 -5 -3 -8 -7 -7 -5 0 -15 -2 -23 -5 -36 -15 -150 -35 -200
-37 -80 -2 -99 -5 -112 -18 -7 -7 -20 -12 -29 -12 -10 0 -20 -4 -23 -8 -7 -12
-106 -32 -136 -28 -14 2 -57 -2 -95 -10 -73 -14 -123 -8 -256 30 -30 9 -52 10
-63 4 -9 -5 -38 -13 -64 -17 -73 -13 -76 -14 -92 -46 -30 -62 -132 -139 -197
-150 -24 -4 -45 -11 -49 -16 -3 -5 -24 -9 -48 -9 -23 0 -47 -5 -54 -12 -9 -9
-12 -9 -12 1 0 10 -3 11 -14 2 -7 -6 -27 -11 -42 -11 -16 1 -67 -13 -114 -29
-61 -22 -101 -31 -140 -30 -30 1 -73 -3 -95 -9 -22 -7 -54 -11 -70 -11 -88 3
-175 -11 -250 -41 -44 -17 -87 -37 -95 -45 -15 -13 -77 -28 -160 -41 -25 -3
-75 -21 -111 -39 -46 -23 -93 -36 -152 -44 -48 -6 -101 -18 -119 -25 -18 -8
-80 -17 -138 -21 -58 -3 -139 -12 -180 -20 -41 -8 -118 -16 -170 -19 -75 -3
-106 -10 -147 -30 -29 -14 -92 -32 -140 -40 -49 -8 -99 -19 -113 -24 -14 -6
-48 -20 -77 -31 -28 -12 -69 -21 -90 -21 -21 -1 -56 -8 -78 -17 -81 -31 -174
-51 -266 -58 -52 -3 -111 -10 -133 -16 -21 -6 -44 -8 -50 -6 -26 10 -213 -11
-244 -27 -38 -20 -106 -34 -226 -47 -49 -5 -103 -16 -120 -25 -27 -13 -56 -18
-171 -28 -11 -1 -24 -4 -30 -8 -5 -3 -45 -16 -89 -28 -75 -21 -86 -21 -235
-11 -86 7 -169 16 -186 20 -16 5 -75 14 -130 21 -97 10 -132 17 -335 59 -166
34 -186 40 -400 122 -69 26 -156 57 -195 70 -38 12 -104 41 -145 63 -41 23
-93 51 -115 61 -21 11 -71 52 -111 90 -40 39 -88 78 -106 88 -38 20 -97 75
-142 132 -17 21 -47 48 -68 61 -62 40 -112 98 -136 160 -47 118 -55 134 -101
188 -46 54 -58 73 -128 209 -35 66 -48 79 -153 152 -55 38 -129 76 -189 96
-52 18 -99 21 -228 12z"/>
</g>
</svg>
