<?xml version="1.0" standalone="no"?>
<!DOCTYPE svg PUBLIC "-//W3C//DTD SVG 20010904//EN"
 "http://www.w3.org/TR/2001/REC-SVG-20010904/DTD/svg10.dtd">
<svg version="1.0" xmlns="http://www.w3.org/2000/svg"
 width="1328.000000pt" height="641.000000pt" viewBox="0 0 1328.000000 641.000000"
 preserveAspectRatio="xMidYMid meet">

<g transform="translate(0.000000,641.000000) scale(0.100000,-0.100000)"
fill="#000000" stroke="none">
<path d="M12837 5697 c-160 -550 -464 -1152 -830 -1643 -556 -746 -1262 -1345
-2117 -1797 -117 -62 -513 -247 -528 -247 -4 0 -19 -6 -33 -14 -92 -48 -423
-163 -704 -245 -435 -128 -780 -197 -1220 -246 -251 -27 -386 -36 -680 -42
-746 -15 -1461 76 -2162 277 -209 60 -515 164 -678 230 -87 35 -154 64 -358
156 -540 243 -1127 626 -1597 1041 -163 144 -478 465 -611 623 -430 509 -770
1083 -986 1665 -44 116 -91 211 -100 201 -7 -6 41 -242 88 -433 614 -2512
2719 -4418 5289 -4787 346 -49 507 -60 930 -60 399 -1 476 3 806 44 1103 137
2163 567 3059 1240 1152 866 1986 2112 2340 3497 60 232 147 673 133 673 -2 0
-20 -60 -41 -133z"/>
</g>
</svg>
